<svg xmlns="http://www.w3.org/2000/svg" width="20" height="20" viewBox="0 0 20 20"><path fill-rule="evenodd" d="M16.2981067,8.7887 C16.8091067,8.7887 17.3211067,8.9837 17.7121067,9.3747 L17.7121067,9.3747 L19.4141067,11.0757 C19.7891067,11.4507 20.0001067,11.9597 20.0001067,12.4907 C20.0001067,13.0217 19.7891067,13.5307 19.4131067,13.9057 L19.4131067,13.9057 L14.7611067,18.5517 C14.5431067,18.7697 14.2781067,18.9337 13.9861067,19.0327 L13.9861067,19.0327 L11.4271067,19.8947 C11.2181067,19.9657 11.0021067,19.9997 10.7891067,19.9997 C10.2671067,19.9997 9.75710668,19.7957 9.37610668,19.4157 C8.83810668,18.8787 8.65110668,18.0847 8.89210668,17.3647 L8.89210668,17.3647 L9.75010668,14.7987 C9.84910668,14.5047 10.0141067,14.2377 10.2341067,14.0187 L10.2341067,14.0187 L14.8841067,9.3737 C15.2751067,8.9837 15.7861067,8.7887 16.2981067,8.7887 Z M13.8411067,13.2427 L11.6471067,15.4337 L10.7881067,17.9997 L13.3481067,17.1367 L15.5431067,14.9437 L13.8411067,13.2427 Z M16.2981067,10.7887 L15.2561067,11.8287 L16.9581067,13.5307 L18.0001067,12.4907 L16.2981067,10.7887 Z M6.08470668,0 C6.79770668,0 7.43970668,0.446 7.68270668,1.111 L7.68270668,1.111 L11.4077067,11.317 L9.99670668,12.755 C9.83370668,12.641 9.70370668,12.48 9.62970668,12.279 L9.62970668,12.279 L8.77470668,9.937 L2.79370668,9.937 L1.93970668,12.279 C1.74970668,12.799 1.17470668,13.063 0.657706682,12.876 C0.138706682,12.687 -0.128293318,12.113 0.0607066821,11.594 L0.0607066821,11.594 L3.88470668,1.111 C4.12770668,0.446 4.76970668,0 5.48270668,0 L5.48270668,0 Z M5.87770668,2 L5.68970668,2 L3.52370668,7.937 L8.04470668,7.937 L5.87770668,2 Z"/></svg>